<svg width="494" height="123" xmlns="http://www.w3.org/2000/svg" xmlns:xlink="http://www.w3.org/1999/xlink" xml:space="preserve" overflow="hidden"><g transform="translate(-736 -8)"><path d="M138.781 88.5338C145.245 94.2389 154.509 97.3794 164.899 97.3794 167.777 97.3794 170.944 97.2223 174.11 96.8298 184.631 95.5736 184.709 95.5736 186.855 95.5736 188.452 95.5736 189.184 95.8092 191.095 96.7251L191.095 79.2434C179.816 84.87 175.079 86.2832 167.123 86.2832 159.979 86.2832 154.692 84.3728 151.211 80.5519 147.966 77.0713 146.056 71.6017 146.056 65.5564 146.056 58.8306 148.464 52.5236 152.625 48.5719 156.341 44.9081 161.653 43.1023 168.458 43.1023 176.754 43.1023 183.375 45.2483 187.928 49.5664L193.686 33.7334C192.43 34.126 191.671 34.283 190.859 34.283 190.1 34.283 188.949 34.126 187.693 33.9689 180.731 32.7913 172.697 31.98 168.117 31.98 157.676 31.98 148.647 34.6232 141.607 39.674 133.625 45.4053 129.569 54.12 129.569 65.5564 129.569 75.5796 132.552 83.1428 138.781 88.5338Z" transform="matrix(1.00407 0 0 1 736 8)"/><path d="M199.548 95.9923 262.383 95.9923C261.31 95.3119 260.996 94.8147 260.996 93.8987 260.996 93.323 261.074 92.5902 261.31 91.7528L264.973 79.8192C261.911 81.9651 260.001 82.8811 256.599 83.7185 252.045 84.713 246.236 85.3672 241.028 85.3672L225.77 85.3672 259.923 36.6906C261.31 34.7279 261.571 34.3877 263.325 33.3932L204.023 33.3932C204.782 33.9689 205.096 34.4662 205.096 35.1204 205.096 35.6177 205.017 35.8009 204.599 37.0308L200.124 50.4038C205.017 45.824 210.487 43.8351 218.547 43.8351L237.599 43.8351 202.871 93.0874C201.275 95.3119 201.118 95.4951 199.548 95.9923Z" transform="matrix(1.00407 0 0 1 736 8)"/><path d="M27.5572 60.2962 26.1179 42.2649 83.954 42.2649 85.1579 57.2343 80.0023 62.3898 86.0738 68.2781 86.9636 79.4266 75.9721 90.3919 61.9449 90.3919 60.8196 76.2077 66.9696 76.2077 67.6238 84.4513 73.5645 84.4513 80.6566 77.0189 80.1594 70.9213 71.6279 62.3898 78.877 54.8266 78.3536 48.2317 32.5557 48.2317 33.053 54.3555 41.1919 54.3294 41.663 60.2962 27.5572 60.2962Z" transform="matrix(1.00407 0 0 1 736 8)"/><path d="M66.6555 72.3606 46.6615 72.3868 45.2221 54.3555 51.1889 54.3555 52.1572 66.42 60.0345 66.42 59.0662 54.3294 65.19 54.3294 66.6555 72.3606Z" transform="matrix(1.00407 0 0 1 736 8)"/><path d="M108.266 62.6515C108.266 90.6798 85.5504 113.396 57.5221 113.396 29.52 113.396 6.80426 90.6798 6.80426 62.6515 6.80426 34.6494 29.52 11.9336 57.5221 11.9336 85.5504 11.9336 108.266 34.6494 108.266 62.6515ZM96.6204 78.8509 94.71 78.0657C96.6989 73.3028 97.7719 68.1211 97.7719 62.6515 97.7719 57.2081 96.6989 52.0264 94.71 47.2634L96.6204 46.4783C92.3285 36.1411 84.0849 27.8713 73.7215 23.5794L72.9364 25.4636C68.1996 23.5009 62.9917 22.4017 57.5221 22.4017 52.0787 22.4017 46.897 23.5009 42.134 25.4636L41.3489 23.5794C31.0117 27.8713 22.7419 36.1411 18.45 46.4783L20.3604 47.2634C18.3715 52.0264 17.2985 57.2081 17.2985 62.6515 17.2985 68.1211 18.3977 73.3289 20.3604 78.0657L18.45 78.8509C22.7419 89.2143 31.0117 97.4579 41.3489 101.75L42.134 99.8655C46.8708 101.828 52.0787 102.901 57.5221 102.901 62.9917 102.901 68.1996 101.828 72.9364 99.8655L73.7215 101.75C84.0849 97.4579 92.3285 89.2143 96.6204 78.8509Z" fill-rule="evenodd" transform="matrix(1.00407 0 0 1 736 8)"/><path d="M338.433 37.4234 336.732 45.9549 347.331 45.9549 347.069 47.2634 336.47 47.2634 334.717 56.0828 333.251 56.0828 337.229 36.1149 350.576 36.1149 350.288 37.4234 338.433 37.4234Z" transform="matrix(1.00407 0 0 1 736 8)"/><path d="M351.78 54.5126C350.576 53.3872 350 51.8694 350 49.9851 350 48.3102 350.367 46.7923 351.073 45.4315 351.806 44.0968 352.827 43.0238 354.109 42.2387 355.418 41.4536 356.883 41.0611 358.506 41.0611 360.521 41.0611 362.117 41.6368 363.321 42.736 364.499 43.8613 365.101 45.353 365.101 47.2634 365.101 48.9383 364.734 50.4823 364.001 51.8432 363.269 53.204 362.248 54.2509 360.966 55.036 359.683 55.7949 358.218 56.1874 356.569 56.1874 354.554 56.1874 352.958 55.6117 351.78 54.5126ZM360.259 53.9368C361.332 53.2826 362.17 52.3928 362.771 51.2413 363.373 50.0898 363.687 48.7813 363.687 47.3419 363.687 45.7717 363.216 44.5417 362.3 43.6781 361.384 42.7883 360.076 42.3434 358.401 42.3434 357.066 42.3434 355.889 42.6836 354.816 43.3379 353.769 43.9921 352.931 44.9081 352.33 46.0596 351.728 47.1849 351.414 48.4934 351.414 49.9066 351.414 51.503 351.885 52.7068 352.801 53.5966 353.717 54.4602 355.025 54.9051 356.7 54.9051 358.009 54.9051 359.212 54.5911 360.259 53.9368Z" fill-rule="evenodd" transform="matrix(1.00407 0 0 1 736 8)"/><path d="M374.182 41.8723C375.229 41.3489 376.485 41.0611 377.976 41.0611L377.715 42.4743 377.244 42.4481C375.569 42.4481 374.182 42.9453 373.083 43.9398 372.01 44.9604 371.251 46.4521 370.858 48.4149L369.314 56.0566 367.901 56.0566 370.858 41.1919 372.245 41.1919 371.617 44.3323C372.297 43.2332 373.161 42.4219 374.182 41.8723Z" transform="matrix(1.00407 0 0 1 736 8)"/><path d="M389.046 51.7647C388.968 52.1311 388.942 52.4713 388.942 52.8115 388.942 54.2509 389.701 54.9574 391.219 54.9574 392.134 54.9574 392.946 54.6957 393.652 54.12L394.071 55.193C393.26 55.8472 392.187 56.1874 390.878 56.1874 389.805 56.1874 388.994 55.8996 388.392 55.35 387.79 54.7743 387.476 54.0153 387.476 53.0209 387.476 52.6283 387.529 52.2357 387.607 51.8694L389.517 42.4219 386.743 42.4219 386.979 41.1919 389.753 41.1919 390.407 37.9468 391.82 37.9468 391.166 41.1919 395.903 41.1919 395.667 42.4219 390.931 42.4219 389.046 51.7647Z" transform="matrix(1.00407 0 0 1 736 8)"/><path d="M411.657 42.3434C412.573 43.1809 413.044 44.3585 413.044 45.824 413.044 46.3474 412.966 46.897 412.861 47.4728L411.16 56.0828 409.721 56.0828 411.448 47.4728C411.527 47.0279 411.579 46.5568 411.579 46.0334 411.579 44.8557 411.239 43.9398 410.506 43.3117 409.799 42.6836 408.753 42.3696 407.392 42.3696 405.691 42.3696 404.251 42.8406 403.126 43.8089 401.974 44.7511 401.216 46.1381 400.849 47.97L399.227 56.0828 397.813 56.0828 402.027 34.9111 403.466 34.9111 401.66 43.966C403.074 42.0294 405.089 41.0611 407.758 41.0611 409.459 41.0611 410.741 41.506 411.657 42.3434Z" transform="matrix(1.00407 0 0 1 736 8)"/><path d="M418.54 54.5126C417.363 53.3872 416.761 51.8694 416.761 49.9851 416.761 48.3102 417.127 46.7923 417.86 45.4315 418.593 44.0968 419.613 43.0238 420.896 42.2387 422.204 41.4536 423.643 41.0611 425.292 41.0611 427.307 41.0611 428.904 41.6368 430.107 42.736 431.285 43.8613 431.887 45.353 431.887 47.2634 431.887 48.9383 431.521 50.4823 430.788 51.8432 430.055 53.204 429.034 54.2509 427.752 55.036 426.444 55.7949 424.978 56.1874 423.356 56.1874 421.34 56.1874 419.744 55.6117 418.54 54.5126ZM427.046 53.9368C428.092 53.2826 428.93 52.3928 429.558 51.2413 430.16 50.0898 430.448 48.7813 430.448 47.3419 430.448 45.7717 430.003 44.5417 429.087 43.6781 428.145 42.7883 426.862 42.3434 425.187 42.3434 423.853 42.3434 422.649 42.6836 421.602 43.3379 420.555 43.9921 419.718 44.9081 419.116 46.0596 418.488 47.1849 418.2 48.4934 418.2 49.9066 418.2 51.503 418.645 52.7068 419.587 53.5966 420.503 54.4602 421.811 54.9051 423.46 54.9051 424.795 54.9051 425.999 54.5911 427.046 53.9368Z" fill-rule="evenodd" transform="matrix(1.00407 0 0 1 736 8)"/><path d="M435.42 55.664C434.373 55.2977 433.562 54.8528 432.96 54.3032L433.745 53.204C434.295 53.7275 435.027 54.1462 435.943 54.4602 436.859 54.7743 437.828 54.9313 438.874 54.9313 440.418 54.9313 441.596 54.6696 442.434 54.12 443.297 53.5704 443.716 52.8115 443.716 51.8432 443.716 51.2936 443.533 50.8749 443.193 50.5347 442.852 50.2206 442.434 49.9851 441.936 49.8019 441.465 49.6449 440.759 49.4879 439.895 49.2785 438.874 49.0691 438.037 48.8598 437.409 48.6243 436.755 48.4149 436.231 48.0485 435.786 47.5513 435.342 47.0802 435.132 46.426 435.132 45.5885 435.132 44.2015 435.708 43.1285 436.833 42.2911 437.959 41.4798 439.476 41.0872 441.361 41.0872 442.303 41.0872 443.219 41.1919 444.109 41.4536 444.998 41.7153 445.731 42.0817 446.254 42.5266L445.6 43.6519C445.051 43.207 444.396 42.8668 443.611 42.6574 442.852 42.4481 442.041 42.3434 441.23 42.3434 439.79 42.3434 438.639 42.6051 437.801 43.1809 436.964 43.7566 436.519 44.5155 436.519 45.4315 436.519 46.0072 436.702 46.4521 437.043 46.7923 437.383 47.1326 437.828 47.3681 438.351 47.5513 438.874 47.7083 439.555 47.8915 440.445 48.1008 441.465 48.3102 442.277 48.5196 442.905 48.7289 443.533 48.9645 444.056 49.3047 444.475 49.7757 444.92 50.2468 445.155 50.9011 445.155 51.7123 445.155 53.0994 444.553 54.1985 443.402 54.9836 442.25 55.7949 440.706 56.1874 438.744 56.1874 437.592 56.1874 436.493 56.0043 435.42 55.664Z" transform="matrix(1.00407 0 0 1 736 8)"/><path d="M449.526 48.9383C449.5 49.357 449.473 49.6711 449.473 49.8804 449.473 51.503 449.944 52.733 450.86 53.5966 451.803 54.4602 453.163 54.9051 454.969 54.9051 456.016 54.9051 456.984 54.7219 457.874 54.3817 458.764 54.0153 459.497 53.5181 460.072 52.9162L460.727 53.9106C460.072 54.6172 459.235 55.193 458.188 55.5855 457.141 55.9781 456.042 56.1874 454.864 56.1874 452.745 56.1874 451.096 55.6379 449.892 54.5387 448.688 53.4396 448.086 51.8955 448.086 49.9328 448.086 48.2579 448.427 46.7662 449.133 45.4053 449.84 44.0706 450.808 42.9977 452.038 42.2387 453.268 41.4536 454.655 41.0872 456.199 41.0872 458.136 41.0872 459.68 41.6368 460.831 42.736 461.957 43.8351 462.532 45.353 462.532 47.2896 462.532 47.7345 462.48 48.3102 462.375 48.9383L449.526 48.9383ZM451.986 43.8089C450.834 44.8296 450.075 46.1643 449.709 47.8392L461.172 47.8392C461.172 47.656 461.198 47.4204 461.198 47.0802 461.198 45.5885 460.727 44.4109 459.837 43.5734 458.921 42.7098 457.691 42.2911 456.173 42.2911 454.55 42.2911 453.163 42.8145 451.986 43.8089Z" fill-rule="evenodd" transform="matrix(1.00407 0 0 1 736 8)"/><path d="M359.605 74.8992 351.152 90.1826 346.781 90.1826 345.002 80.6566 339.768 90.1826 335.424 90.1826 332.728 74.8992 336.758 74.8992 338.459 85.184 344.191 74.8992 348.011 74.8992 349.739 85.184 355.418 74.8992 359.605 74.8992Z" transform="matrix(1.00407 0 0 1 736 8)"/><path d="M374.548 76.0245C375.543 76.9404 376.066 78.2228 376.066 79.8977 376.066 80.4996 375.987 81.1015 375.857 81.7034L374.156 90.1826 369.707 90.1826 371.355 81.9913C371.434 81.6772 371.486 81.337 371.486 80.9445 371.486 80.1594 371.251 79.5313 370.832 79.1126 370.387 78.72 369.733 78.5106 368.869 78.5106 367.718 78.5106 366.776 78.8247 366.043 79.4789 365.284 80.1332 364.787 81.1277 364.499 82.41L362.981 90.1826 358.532 90.1826 362.745 69.0894 367.194 69.0894 365.755 76.2862C367.063 75.2132 368.634 74.6636 370.492 74.6636 372.193 74.6636 373.554 75.1085 374.548 76.0245Z" transform="matrix(1.00407 0 0 1 736 8)"/><path d="M382.111 89.5545C380.96 88.9787 380.07 88.1936 379.416 87.1468 378.788 86.1262 378.474 84.9223 378.474 83.5615 378.474 81.8604 378.866 80.3687 379.677 79.0079 380.463 77.6732 381.562 76.6002 382.975 75.8151 384.362 75.0562 385.958 74.6636 387.712 74.6636 389.256 74.6636 390.617 74.9515 391.768 75.5011 392.92 76.0768 393.836 76.8881 394.464 77.9087 395.092 78.9555 395.406 80.1594 395.406 81.5202 395.406 83.1951 395.013 84.713 394.228 86.0477 393.443 87.4085 392.344 88.4553 390.931 89.2404 389.517 90.0255 387.947 90.4181 386.168 90.4181 384.65 90.4181 383.289 90.1302 382.111 89.5545ZM388.759 86.1C389.439 85.6813 389.962 85.0794 390.355 84.3204 390.721 83.5615 390.931 82.6979 390.931 81.7034 390.931 80.6828 390.617 79.8453 390.015 79.2434 389.413 78.6415 388.549 78.3274 387.45 78.3274 386.586 78.3274 385.801 78.5368 385.121 78.9817 384.44 79.4004 383.917 79.9762 383.524 80.7351 383.158 81.494 382.975 82.3838 382.975 83.3521 382.975 84.3989 383.263 85.2364 383.891 85.8383 384.493 86.4402 385.356 86.7543 386.456 86.7543 387.319 86.7543 388.078 86.5187 388.759 86.1Z" fill-rule="evenodd" transform="matrix(1.00407 0 0 1 736 8)"/><path d="M416.211 81.5464 421.471 90.1826 416.342 90.1826 412.704 84.2419 409.983 86.4926 409.25 90.1826 404.827 90.1826 409.04 69.0894 413.463 69.0894 411.108 80.8921 418.436 74.8992 424.219 74.8992 416.211 81.5464Z" transform="matrix(1.00407 0 0 1 736 8)"/><path d="M439.162 76.0245C440.157 76.9143 440.654 78.1966 440.654 79.8715 440.654 80.4996 440.602 81.1015 440.471 81.7034L438.77 90.1826 434.321 90.1826 435.97 81.9913C436.048 81.6772 436.074 81.3109 436.074 80.9445 436.074 80.1594 435.865 79.5313 435.42 79.1126 435.001 78.72 434.347 78.5106 433.457 78.5106 432.332 78.5106 431.39 78.8247 430.631 79.4789 429.898 80.1332 429.375 81.1015 429.113 82.41L427.595 90.1826 423.146 90.1826 426.182 74.8992 430.395 74.8992 430.055 76.5479C431.416 75.2917 433.091 74.6636 435.08 74.6636 436.807 74.6636 438.168 75.1085 439.162 76.0245Z" transform="matrix(1.00407 0 0 1 736 8)"/><path d="M446.726 89.5545C445.574 88.9787 444.658 88.1936 444.03 87.1468 443.402 86.1262 443.088 84.9223 443.088 83.5615 443.088 81.8604 443.48 80.3687 444.266 79.0079 445.077 77.6732 446.176 76.6002 447.563 75.8151 448.976 75.0562 450.573 74.6636 452.326 74.6636 453.87 74.6636 455.231 74.9515 456.382 75.5011 457.534 76.0768 458.424 76.8881 459.078 77.9087 459.706 78.9555 460.02 80.1594 460.02 81.5202 460.02 83.1951 459.627 84.713 458.842 86.0477 458.057 87.4085 456.958 88.4553 455.545 89.2404 454.132 90.0255 452.535 90.4181 450.782 90.4181 449.264 90.4181 447.903 90.1302 446.726 89.5545ZM453.373 86.1C454.053 85.6813 454.577 85.0794 454.969 84.3204 455.336 83.5615 455.545 82.6979 455.545 81.7034 455.545 80.6828 455.231 79.8453 454.629 79.2434 454.027 78.6415 453.163 78.3274 452.064 78.3274 451.201 78.3274 450.416 78.5368 449.735 78.9817 449.055 79.4004 448.531 79.9762 448.139 80.7351 447.772 81.494 447.563 82.3838 447.563 83.3521 447.563 84.3989 447.877 85.2364 448.505 85.8383 449.107 86.4402 449.971 86.7543 451.07 86.7543 451.933 86.7543 452.692 86.5187 453.373 86.1Z" fill-rule="evenodd" transform="matrix(1.00407 0 0 1 736 8)"/><path d="M488.99 74.8992 480.537 90.1826 476.167 90.1826 474.414 80.6566 469.153 90.1826 464.835 90.1826 462.14 74.8992 466.17 74.8992 467.845 85.184 473.576 74.8992 477.397 74.8992 479.124 85.184 484.803 74.8992 488.99 74.8992Z" transform="matrix(1.00407 0 0 1 736 8)"/><path d="M312.525 108.816 310.326 108.816 310.326 16.4872 312.525 16.4872 312.525 108.816Z" transform="matrix(1.00407 0 0 1 736 8)"/></g></svg>